<svg width="220" height="48" viewBox="0 0 220 48" fill="none" xmlns="http://www.w3.org/2000/svg">
<g clip-path="url(#clip0_645_218)">
<path d="M42.6886 34.949C40.1491 34.9591 37.625 34.5551 35.2156 33.7531C32.8366 32.9559 30.9643 31.9227 29.5987 30.6536L31.4059 26.8463C32.8806 28.0847 34.5689 29.044 36.3879 29.6773C38.4033 30.4291 40.5373 30.8135 42.6886 30.8122C44.6728 30.8122 46.2846 30.5844 47.524 30.1289C48.7634 29.6733 49.6792 29.0469 50.2714 28.2496C50.853 27.467 51.1619 26.5154 51.1506 25.5406C51.1723 25.0142 51.0811 24.4892 50.8832 24.0009C50.6852 23.5127 50.385 23.0723 50.0028 22.7095C49.1358 21.929 48.1175 21.3351 47.0112 20.9645C45.6931 20.5022 44.3473 20.1231 42.9816 19.8296C41.5163 19.5063 40.0429 19.1239 38.5614 18.6826C37.1469 18.2706 35.783 17.7016 34.4952 16.9864C33.2985 16.3289 32.2834 15.3856 31.5402 14.2407C30.7974 13.0855 30.427 11.5927 30.429 9.76226C30.4178 8.04349 30.901 6.35769 31.8211 4.90552C32.7491 3.42693 34.1818 2.23919 36.1192 1.34228C38.0566 0.445366 40.5232 -0.00207269 43.5189 -3.88743e-05C45.5146 0.000825713 47.5015 0.263395 49.4289 0.780945C51.2367 1.2376 52.9542 1.99676 54.5085 3.02627L52.8967 6.93119C51.4769 5.97131 49.9095 5.24996 48.2566 4.79569C46.7134 4.36806 45.1203 4.14649 43.5189 4.13674C41.5977 4.13674 40.0185 4.38079 38.7811 4.86891C37.5438 5.35702 36.6402 6.00784 36.0704 6.82137C35.5023 7.62333 35.2031 8.58453 35.2156 9.56701C35.1906 10.1011 35.2801 10.6343 35.478 11.1309C35.676 11.6276 35.9779 12.0763 36.3634 12.4469C37.2255 13.2192 38.2407 13.8013 39.3428 14.1553C40.665 14.6078 42.0101 14.9906 43.3724 15.3024C44.8377 15.644 46.3111 16.0264 47.7926 16.4494C49.2036 16.8442 50.564 17.4011 51.8466 18.109C53.0402 18.7707 54.0545 19.7131 54.8016 20.8547C55.5485 21.9916 55.9229 23.4559 55.925 25.2477C55.9303 26.9538 55.4381 28.6246 54.5085 30.0556C53.5622 31.5342 52.105 32.722 50.1371 33.6189C48.1691 34.5158 45.6863 34.9592 42.6886 34.949Z" fill="white"/>
<path d="M78.3438 34.949C75.8822 34.9757 73.4378 34.5368 71.1395 33.6555C69.0065 32.8339 67.0625 31.5885 65.4249 29.9946C63.8109 28.4146 62.5245 26.532 61.6396 24.4545C60.7087 22.2464 60.2431 19.8703 60.272 17.4745C60.2431 15.0786 60.7087 12.7025 61.6396 10.4944C62.5267 8.41211 63.8221 6.52838 65.4493 4.95433C67.0985 3.36326 69.0499 2.11848 71.1883 1.29347C75.8699 -0.447748 81.0249 -0.430402 85.6946 1.34228C87.8761 2.20036 89.8253 3.55887 91.3848 5.30821L88.2222 8.39554C86.99 7.07861 85.4916 6.03869 83.8264 5.34482C82.167 4.67138 80.3911 4.33136 78.6002 4.34418C76.7716 4.32725 74.9565 4.65856 73.2519 5.32041C71.6578 5.94053 70.2045 6.8742 68.9782 8.06606C67.7642 9.24887 66.808 10.6697 66.1697 12.2394C65.4911 13.9049 65.1507 15.6885 65.1684 17.4867C65.1507 19.2848 65.4911 21.0685 66.1697 22.7339C66.808 24.3036 67.7642 25.7245 68.9782 26.9073C70.2045 28.0992 71.6578 29.0328 73.2519 29.6529C74.9565 30.3148 76.7716 30.6461 78.6002 30.6292C80.3895 30.6288 82.1612 30.2763 83.8142 29.5919C85.4916 28.897 86.9962 27.8432 88.2222 26.5046L91.3848 29.5919C89.8228 31.3473 87.8752 32.7173 85.6946 33.5945C83.3566 34.5221 80.8591 34.9823 78.3438 34.949Z" fill="white"/>
<path d="M179.558 34.5585L168.129 0.390453H173.16L183.661 31.9227H181.121L192.013 0.390453H196.507L207.154 31.9227H204.712L215.36 0.390453H220L208.571 34.5585H203.442L193.478 5.32041H194.797L184.784 34.5585H179.558Z" fill="white"/>
<path d="M24.1436 30.3119H0V34.5585H24.1436V30.3119Z" fill="white"/>
<path d="M24.1436 0.390453H0V4.63705H24.1436V0.390453Z" fill="white"/>
<path d="M24.1436 15.1254H0V19.372H24.1436V15.1254Z" fill="white"/>
<path d="M4.24932 31.4437V16.8735H0V31.4437H4.24932Z" fill="white"/>
<path d="M103.254 14.9485H98.3693V34.5585H103.254V14.9485Z" fill="white"/>
<path d="M110.241 18.9907L113.746 16.5288L126.429 34.5616L121.228 34.5585L110.241 18.9907Z" fill="white"/>
<path d="M115.452 0.527735H98.3296V4.65841H115.452V0.527735Z" fill="white"/>
<path d="M115.452 14.9485H98.3296V19.0792H115.452V14.9485Z" fill="white"/>
<path d="M115.452 0.527735V4.67976C119.094 4.67976 122.049 6.99526 122.049 9.86598C122.049 12.7367 119.094 14.9485 115.452 14.9485V19.0792C121.96 19.0547 127.226 14.9119 127.226 9.80497C127.226 4.69807 121.96 0.552141 115.452 0.527735Z" fill="white"/>
<path d="M148.705 34.949C146.225 34.9719 143.764 34.5247 141.452 33.6311C139.292 32.8017 137.32 31.5487 135.652 29.9458C134.03 28.3698 132.739 26.4864 131.854 24.4057C130.926 22.2138 130.461 19.8543 130.486 17.4745C130.461 15.0947 130.926 12.7352 131.854 10.5432C132.742 8.46152 134.038 6.57799 135.664 5.00314C137.322 3.40562 139.281 2.15299 141.427 1.31787C146.094 -0.430911 151.236 -0.439577 155.909 1.29347C158.053 2.12262 160.011 3.36671 161.673 4.95433C163.308 6.52102 164.605 8.40664 165.482 10.4944C166.396 12.7068 166.853 15.0811 166.826 17.4745C166.853 19.8679 166.396 22.2421 165.482 24.4545C164.605 26.5423 163.308 28.4279 161.673 29.9946C160.011 31.5822 158.053 32.8263 155.909 33.6555C153.611 34.5364 151.166 34.9753 148.705 34.949ZM148.705 30.6048C150.502 30.6215 152.285 30.29 153.955 29.6285C155.527 29.0072 156.956 28.0731 158.156 26.8829C159.349 25.6878 160.295 24.2697 160.94 22.7095C161.62 21.053 161.96 19.277 161.941 17.4867C161.96 15.6963 161.62 13.9203 160.94 12.2638C160.294 10.704 159.348 9.28608 158.156 8.09047C156.956 6.90027 155.527 5.96614 153.955 5.34482C152.285 4.68334 150.502 4.35181 148.705 4.36859C146.892 4.34905 145.092 4.68056 143.405 5.34482C141.831 5.97236 140.398 6.9091 139.192 8.09963C137.986 9.29016 137.031 10.7103 136.384 12.2761C135.704 13.9325 135.364 15.7085 135.383 17.4989C135.364 19.2892 135.704 21.0653 136.384 22.7217C137.03 24.2874 137.985 25.7068 139.193 26.8951C140.404 28.0819 141.841 29.0153 143.418 29.6407C145.101 30.2993 146.897 30.6266 148.705 30.6048Z" fill="white"/>
<path d="M154.67 23.2434L150.826 16.5898C151.387 16.1405 151.795 15.5281 151.993 14.8373C152.191 14.1465 152.169 13.4114 151.931 12.7335C151.692 12.0556 151.249 11.4683 150.663 11.0529C150.076 10.6374 149.375 10.4143 148.656 10.4143C147.937 10.4143 147.236 10.6374 146.649 11.0529C146.062 11.4683 145.619 12.0556 145.381 12.7335C145.143 13.4114 145.121 14.1465 145.319 14.8373C145.517 15.5281 145.924 16.1405 146.485 16.5898L142.642 23.2434H154.67Z" fill="white"/>
<path d="M121.445 45.3245L124.348 38.918H125.254L128.167 45.3245H127.205L124.613 39.4305H124.98L122.388 45.3245H121.445ZM122.681 43.7228L122.928 42.9907H126.536L126.802 43.7228H122.681Z" fill="white"/>
<path d="M129.123 45.3245V38.918H129.874L134.114 44.1804H133.72V38.918H134.636V45.3245H133.885L129.645 40.062H130.039V45.3245H129.123Z" fill="white"/>
<path d="M136.555 45.3245V38.918H139.256C139.94 38.918 140.542 39.0522 141.061 39.3206C141.586 39.5891 141.992 39.9643 142.279 40.4464C142.572 40.9284 142.718 41.4867 142.718 42.1212C142.718 42.7558 142.572 43.314 142.279 43.796C141.992 44.2781 141.586 44.6533 141.061 44.9218C140.542 45.1902 139.94 45.3245 139.256 45.3245H136.555ZM137.471 44.5282H139.201C139.733 44.5282 140.191 44.4275 140.575 44.2262C140.966 44.0249 141.268 43.7442 141.482 43.3842C141.696 43.0181 141.802 42.5971 141.802 42.1212C141.802 41.6392 141.696 41.2182 141.482 40.8582C141.268 40.4982 140.966 40.2176 140.575 40.0162C140.191 39.8149 139.733 39.7142 139.201 39.7142H137.471V44.5282Z" fill="white"/>
<path d="M147.853 45.3245V39.7142H145.655V38.918H150.958V39.7142H148.76V45.3245H147.853Z" fill="white"/>
<path d="M151.955 45.3245V38.918H154.455C155.017 38.918 155.496 39.0064 155.893 39.1834C156.29 39.3603 156.595 39.6166 156.809 39.9521C157.023 40.2877 157.13 40.6874 157.13 41.1511C157.13 41.6148 157.023 42.0144 156.809 42.35C156.595 42.6795 156.29 42.9327 155.893 43.1096C155.496 43.2866 155.017 43.3751 154.455 43.3751H152.459L152.871 42.9541V45.3245H151.955ZM156.241 45.3245L154.611 42.9998H155.591L157.239 45.3245H156.241ZM152.871 43.0456L152.459 42.5971H154.428C155.014 42.5971 155.457 42.472 155.756 42.2219C156.061 41.9656 156.214 41.6087 156.214 41.1511C156.214 40.6935 156.061 40.3396 155.756 40.0894C155.457 39.8393 155.014 39.7142 154.428 39.7142H152.459L152.871 39.2566V43.0456Z" fill="white"/>
<path d="M161.265 45.3977C160.422 45.3977 159.76 45.1567 159.278 44.6747C158.795 44.1926 158.554 43.4879 158.554 42.5605V38.918H159.47V42.5239C159.47 43.2378 159.626 43.7594 159.937 44.0889C160.255 44.4184 160.7 44.5831 161.274 44.5831C161.854 44.5831 162.3 44.4184 162.611 44.0889C162.929 43.7594 163.087 43.2378 163.087 42.5239V38.918H163.976V42.5605C163.976 43.4879 163.735 44.1926 163.252 44.6747C162.776 45.1567 162.114 45.3977 161.265 45.3977Z" fill="white"/>
<path d="M167.722 45.3977C167.233 45.3977 166.766 45.3245 166.32 45.178C165.875 45.0255 165.524 44.8302 165.267 44.5923L165.606 43.8784C165.85 44.092 166.162 44.2689 166.54 44.4092C166.919 44.5496 167.312 44.6197 167.722 44.6197C168.094 44.6197 168.396 44.577 168.628 44.4916C168.86 44.4062 169.031 44.2903 169.141 44.1438C169.251 43.9913 169.306 43.8205 169.306 43.6313C169.306 43.4117 169.233 43.2347 169.086 43.1005C168.946 42.9663 168.759 42.8595 168.527 42.7802C168.302 42.6947 168.051 42.6215 167.776 42.5605C167.502 42.4995 167.224 42.4293 166.943 42.35C166.668 42.2646 166.415 42.1578 166.183 42.0297C165.957 41.9016 165.774 41.7307 165.634 41.5172C165.493 41.2975 165.423 41.0168 165.423 40.6752C165.423 40.3457 165.508 40.0437 165.679 39.7691C165.856 39.4884 166.125 39.2657 166.485 39.101C166.852 38.9302 167.316 38.8447 167.877 38.8447C168.25 38.8447 168.619 38.8935 168.985 38.9912C169.352 39.0888 169.669 39.2291 169.938 39.4122L169.636 40.1443C169.361 39.9613 169.071 39.8301 168.766 39.7508C168.46 39.6654 168.164 39.6227 167.877 39.6227C167.517 39.6227 167.221 39.6684 166.989 39.7599C166.757 39.8515 166.586 39.9735 166.476 40.126C166.372 40.2786 166.32 40.4494 166.32 40.6386C166.32 40.8643 166.391 41.0443 166.531 41.1785C166.678 41.3128 166.864 41.4195 167.09 41.4989C167.322 41.5782 167.575 41.6514 167.85 41.7185C168.124 41.7795 168.399 41.8497 168.674 41.929C168.955 42.0083 169.208 42.1121 169.434 42.2402C169.666 42.3683 169.852 42.5392 169.993 42.7527C170.133 42.9663 170.203 43.2408 170.203 43.5764C170.203 43.8998 170.115 44.2018 169.938 44.4825C169.761 44.757 169.486 44.9797 169.114 45.1506C168.747 45.3153 168.283 45.3977 167.722 45.3977Z" fill="white"/>
<path d="M172.725 45.3245V39.7142H170.527V38.918H175.829V39.7142H173.631V45.3245H172.725Z" fill="white"/>
</g>
<defs>
<clipPath id="clip0_645_218">
<rect width="220" height="48" fill="white"/>
</clipPath>
</defs>
</svg>
