<svg width="100" height="100" viewBox="0 0 100 100" fill="none" xmlns="http://www.w3.org/2000/svg">
<path d="M45.8334 16.6667H16.6667C14.4566 16.6667 12.337 17.5447 10.7742 19.1075C9.21135 20.6703 8.33337 22.7899 8.33337 25.0001V83.3334C8.33337 85.5435 9.21135 87.6632 10.7742 89.226C12.337 90.7888 14.4566 91.6667 16.6667 91.6667H75C77.2102 91.6667 79.3298 90.7888 80.8926 89.226C82.4554 87.6632 83.3334 85.5435 83.3334 83.3334V54.1667" stroke="white" stroke-width="3" stroke-linecap="round" stroke-linejoin="round"/>
<path d="M77.0834 10.4167C78.741 8.75911 80.9892 7.82788 83.3334 7.82788C85.6776 7.82788 87.9258 8.75911 89.5834 10.4167C91.241 12.0743 92.1722 14.3225 92.1722 16.6667C92.1722 19.0109 91.241 21.2591 89.5834 22.9167L50 62.5L33.3334 66.6667L37.5 50L77.0834 10.4167Z" stroke="white" stroke-width="3" stroke-linecap="round" stroke-linejoin="round"/>
</svg>
