<svg width="75" height="56" viewBox="0 0 75 56" fill="none" xmlns="http://www.w3.org/2000/svg">
<path d="M4 3C4 1.34315 5.34315 0 7 0H34.1663C35.8518 0 37.3564 1.05651 37.9287 2.64185L38.5463 4.35286C39.1186 5.93819 40.6232 6.9947 42.3087 6.9947H72C73.6569 6.9947 75 8.33785 75 9.9947V52.9576C75 54.6145 73.6569 55.9576 72 55.9576H7C5.34314 55.9576 4 54.6145 4 52.9576V3Z" fill="#567C97"/>
<path opacity="0.6" d="M0.290278 14.2656C0.134297 12.5108 1.51679 11 3.2785 11H35.5H68.2548C69.8088 11 71.1055 12.1866 71.2431 13.7344L74.7097 52.7344C74.8657 54.4892 73.4832 56 71.7215 56H6.74516C5.19125 56 3.89453 54.8134 3.75694 53.2656L0.290278 14.2656Z" fill="#0131F5"/>
<path opacity="0.3" d="M9 50.5H70" stroke="white" stroke-linecap="round"/>
<path opacity="0.3" d="M9 53H70" stroke="white" stroke-linecap="round"/>
</svg>
