<svg width="30" height="30" viewBox="0 0 30 30" fill="none" xmlns="http://www.w3.org/2000/svg">
<path d="M18.0666 6.66683C19.3689 6.92092 20.5658 7.55784 21.504 8.49608C22.4423 9.43431 23.0792 10.6312 23.3333 11.9335M18.0666 1.3335C20.7723 1.63408 23.2954 2.84573 25.2216 4.76951C27.1478 6.69328 28.3626 9.21484 28.6666 11.9202M27.3333 22.5602V26.5602C27.3348 26.9315 27.2587 27.2991 27.11 27.6393C26.9612 27.9795 26.743 28.2849 26.4694 28.536C26.1958 28.787 25.8727 28.9781 25.521 29.0971C25.1692 29.2161 24.7964 29.2603 24.4266 29.2268C20.3237 28.781 16.3826 27.379 12.92 25.1335C9.69839 23.0864 6.96707 20.3551 4.91995 17.1335C2.66659 13.6551 1.26428 9.69482 0.826618 5.5735C0.793299 5.20479 0.837118 4.83318 0.955285 4.48233C1.07345 4.13148 1.26338 3.80908 1.51297 3.53566C1.76257 3.26223 2.06636 3.04378 2.40501 2.89419C2.74365 2.74461 3.10974 2.66718 3.47995 2.66683H7.47995C8.12703 2.66046 8.75434 2.8896 9.24497 3.31154C9.73559 3.73348 10.0561 4.31943 10.1466 4.96016C10.3154 6.24025 10.6286 7.49713 11.08 8.70683C11.2593 9.18406 11.2982 9.70272 11.1918 10.2013C11.0855 10.7 10.8384 11.1576 10.48 11.5202L8.78662 13.2135C10.6847 16.5516 13.4486 19.3154 16.7866 21.2135L18.48 19.5202C18.8425 19.1617 19.3002 18.9146 19.7988 18.8083C20.2974 18.7019 20.8161 18.7408 21.2933 18.9202C22.503 19.3716 23.7599 19.6847 25.04 19.8535C25.6876 19.9449 26.2792 20.2711 26.702 20.7702C27.1248 21.2692 27.3495 21.9063 27.3333 22.5602Z" stroke="white" stroke-width="1.5" stroke-linecap="round" stroke-linejoin="round"/>
</svg>
