<svg width="32" height="32" viewBox="0 0 32 32" fill="none" xmlns="http://www.w3.org/2000/svg">
<circle cx="16" cy="16" r="15.5" stroke="white" stroke-opacity="0.5"/>
<path d="M16.375 15.9375C16.375 15.6268 16.1232 15.375 15.8125 15.375C15.5018 15.375 15.25 15.6268 15.25 15.9375C15.25 16.2482 15.5018 16.5 15.8125 16.5C16.1232 16.5 16.375 16.2482 16.375 15.9375Z" fill="white"/>
<path d="M16.375 8.9375C16.375 8.62684 16.1232 8.375 15.8125 8.375C15.5018 8.375 15.25 8.62684 15.25 8.9375C15.25 9.24816 15.5018 9.5 15.8125 9.5C16.1232 9.5 16.375 9.24816 16.375 8.9375Z" fill="white"/>
<path d="M16.375 22.9375C16.375 22.6268 16.1232 22.375 15.8125 22.375C15.5018 22.375 15.25 22.6268 15.25 22.9375C15.25 23.2482 15.5018 23.5 15.8125 23.5C16.1232 23.5 16.375 23.2482 16.375 22.9375Z" fill="white"/>
<path d="M16.375 15.9375C16.375 15.6268 16.1232 15.375 15.8125 15.375C15.5018 15.375 15.25 15.6268 15.25 15.9375C15.25 16.2482 15.5018 16.5 15.8125 16.5C16.1232 16.5 16.375 16.2482 16.375 15.9375Z" stroke="white" stroke-width="1.5" stroke-linecap="round" stroke-linejoin="round"/>
<path d="M16.375 8.9375C16.375 8.62684 16.1232 8.375 15.8125 8.375C15.5018 8.375 15.25 8.62684 15.25 8.9375C15.25 9.24816 15.5018 9.5 15.8125 9.5C16.1232 9.5 16.375 9.24816 16.375 8.9375Z" stroke="white" stroke-width="1.5" stroke-linecap="round" stroke-linejoin="round"/>
<path d="M16.375 22.9375C16.375 22.6268 16.1232 22.375 15.8125 22.375C15.5018 22.375 15.25 22.6268 15.25 22.9375C15.25 23.2482 15.5018 23.5 15.8125 23.5C16.1232 23.5 16.375 23.2482 16.375 22.9375Z" stroke="white" stroke-width="1.5" stroke-linecap="round" stroke-linejoin="round"/>
</svg>
