<svg width="60" height="51" viewBox="0 0 60 51" fill="none" xmlns="http://www.w3.org/2000/svg">
<path d="M59 18.5C55.8409 14.0772 51.5355 8.04969 48.8906 4.34678C47.3889 2.24441 44.9667 1 42.3831 1H36M59 18.5C48.163 30.6063 31.25 49.5 31.25 49.5M59 18.5C52.3611 18.5 42 18.5 42 18.5M31.25 49.5L1.5 18.5M31.25 49.5L42 18.5M31.25 49.5L18 18.5M1.5 18.5L13.6006 3.89586C15.1204 2.06157 17.3786 1 19.7607 1H27M1.5 18.5H18M27 1H31.25H36M27 1L18 18.5M36 1L42 18.5M18 18.5H42" stroke="white" stroke-width="1.5" stroke-linejoin="round"/>
</svg>
