<svg width="25" height="25" viewBox="0 0 25 25" fill="none" xmlns="http://www.w3.org/2000/svg">
<path opacity="0.8" fill-rule="evenodd" clip-rule="evenodd" d="M12.5 25C19.4035 25 25 19.4035 25 12.5C25 5.59645 19.4035 0 12.5 0C5.59645 0 0 5.59645 0 12.5C0 19.4035 5.59645 25 12.5 25ZM13.3577 6.50365C12.7287 6.52118 12.065 6.6726 11.5962 7.11807C11.209 7.47622 11.0139 7.9975 10.97 8.51857C10.9567 8.89127 10.9586 9.26495 10.9605 9.63848C10.9619 9.9186 10.9634 10.1987 10.9584 10.4782C10.7862 10.4794 10.6135 10.479 10.4406 10.4787C10.2102 10.4782 9.97962 10.4777 9.75 10.4811C9.75 10.7041 9.75033 10.9275 9.75065 11.151C9.7513 11.5988 9.75195 12.0473 9.75 12.496C9.97962 12.4993 10.2102 12.4988 10.4407 12.4984C10.6135 12.498 10.7862 12.4977 10.9584 12.4989C10.9622 13.388 10.9615 14.2771 10.9608 15.1662C10.9599 16.2775 10.959 17.3887 10.9671 18.5C11.4397 18.4967 11.9113 18.4971 12.3829 18.4976C12.7367 18.498 13.0906 18.4983 13.4451 18.4971C13.448 17.4968 13.4472 16.4974 13.4465 15.498C13.4458 14.4985 13.4451 13.4991 13.448 12.4989C13.6863 12.4977 13.9247 12.498 14.163 12.4984C14.4808 12.4988 14.7986 12.4993 15.1164 12.496C15.2154 11.8262 15.2998 11.1506 15.3463 10.4723C15.0319 10.4708 14.7175 10.4708 14.403 10.4708C14.0885 10.4708 13.7741 10.4708 13.4597 10.4694C13.4597 10.3521 13.4595 10.2349 13.4593 10.1177C13.4587 9.76615 13.4582 9.41465 13.4626 9.06303C13.5121 8.79218 13.7915 8.58543 14.0624 8.60295H15.3493C15.3522 7.90123 15.3522 7.20245 15.3493 6.50072C15.1834 6.50072 15.0174 6.50055 14.8515 6.50037C14.3536 6.49983 13.8557 6.49928 13.3577 6.50365Z" fill="white"/>
</svg>
