<svg width="25" height="25" viewBox="0 0 25 25" fill="none" xmlns="http://www.w3.org/2000/svg">
<g clip-path="url(#clip0_674_32)">
<path opacity="0.8" fill-rule="evenodd" clip-rule="evenodd" d="M12.5 25C19.4035 25 25 19.4035 25 12.5C25 5.59645 19.4035 0 12.5 0C5.59645 0 0 5.59645 0 12.5C0 19.4035 5.59645 25 12.5 25ZM18.25 17.25V13.0907C18.25 10.8629 17.0604 9.8261 15.473 9.8261C14.1922 9.8261 13.6199 10.5311 13.2995 11.0246V9.99655H10.8878C10.9202 10.6774 10.8878 17.25 10.8878 17.25H13.2999V13.1992C13.2999 12.9823 13.3163 12.7664 13.3799 12.6114C13.5545 12.1776 13.9509 11.7292 14.6172 11.7292C15.4899 11.7292 15.8387 12.3945 15.8387 13.3693V17.25H18.25ZM13.2995 11.0246V11.0482H13.2837C13.2854 11.0454 13.2874 11.0424 13.2894 11.0395C13.2928 11.0346 13.2964 11.0295 13.2995 11.0246ZM7 7.75308C7 7.0412 7.53957 6.5 8.36477 6.5C9.19018 6.5 9.69732 7.0412 9.71313 7.75308C9.71313 8.44935 9.19018 9.00698 8.34895 9.00698H8.33295C7.52417 9.00698 7 8.44935 7 7.75308ZM9.55443 17.25H7.1433V9.99655H9.55443V17.25Z" fill="white"/>
</g>
<defs>
<clipPath id="clip0_674_32">
<rect width="25" height="25" fill="white"/>
</clipPath>
</defs>
</svg>
