<svg width="60" height="60" viewBox="0 0 60 60" fill="none" xmlns="http://www.w3.org/2000/svg">
<path d="M52.275 27.8C52.275 40.025 43.4 51.475 31.275 54.825C30.45 55.05 29.55 55.05 28.725 54.825C16.6 51.475 7.72498 40.025 7.72498 27.8V16.825C7.72498 14.775 9.27501 12.45 11.2 11.675L25.125 5.97505C28.25 4.70005 31.775 4.70005 34.9 5.97505L48.825 11.675C50.725 12.45 52.3 14.775 52.3 16.825L52.275 27.8Z" stroke="white" stroke-width="1.5" stroke-linecap="round" stroke-linejoin="round"/>
<path d="M48.9787 28.1458C48.9787 38.4199 41.4128 48.0428 31.0763 50.8582C30.373 51.0473 29.6057 51.0473 28.9024 50.8582C18.5659 48.0428 11 38.4199 11 28.1458V18.9222C11 17.1993 12.3214 15.2453 13.9625 14.594L25.8334 9.80365C28.4974 8.73212 31.5025 8.73212 34.1665 9.80365L46.0375 14.594C47.6573 15.2453 49 17.1993 49 18.9222L48.9787 28.1458Z" stroke="white" stroke-linecap="round" stroke-linejoin="round"/>
<path d="M23 29.9644L27.4423 37L37 23" stroke="white" stroke-width="2" stroke-linecap="round" stroke-linejoin="round"/>
</svg>
